<svg width="195" height="289" viewBox="0 0 195 289" fill="none" xmlns="http://www.w3.org/2000/svg">
<g clip-path="url(#clip0_110_3)">
<path d="M14 244.667L14 61.3333C14 52.4928 17.5119 44.0143 23.7631 37.7631C30.0143 31.5119 38.4928 28 47.3333 28H55.6667C57.8768 28 59.9964 27.122 61.5592 25.5592C63.122 23.9964 64 21.8768 64 19.6667C64 17.4565 64.878 15.3369 66.4408 13.7741C68.0036 12.2113 70.1232 11.3333 72.3333 11.3333H122.333C124.543 11.3333 126.663 12.2113 128.226 13.7741C129.789 15.3369 130.667 17.4565 130.667 19.6667C130.667 21.8768 131.545 23.9964 133.107 25.5592C134.67 27.122 136.79 28 139 28H147.333C156.174 28 164.652 31.5119 170.904 37.7631C177.155 44.0143 180.667 52.4928 180.667 61.3333V244.667C180.667 253.507 177.155 261.986 170.904 268.237C164.652 274.488 156.174 278 147.333 278H47.3333C38.4928 278 30.0143 274.488 23.7631 268.237C17.5119 261.986 14 253.507 14 244.667Z" stroke="black" stroke-width="7" stroke-linecap="round" stroke-linejoin="round"/>
</g>
<defs>
<clipPath id="clip0_110_3">
<rect width="289" height="195" fill="white" transform="matrix(0 -1 1 0 0 289)"/>
</clipPath>
</defs>
</svg>
